<svg width="600" height="512" viewBox="0 0 600 512" fill="none" xmlns="http://www.w3.org/2000/svg">
<path d="M233.187 0.374563C253.053 0.374563 264.787 22.6321 253.56 39.016L219.44 88.8042C214.836 95.5228 207.213 99.5391 199.067 99.5391H140.785C112.45 99.5391 92.4145 127.258 101.304 154.155L121.345 214.754C123.765 222.072 122.628 230.099 118.271 236.457L82.8934 288.08C71.3446 304.932 45.4878 301.271 39.0735 281.876L7.12659 185.279C-0.0415616 163.594 -1.84764 140.281 1.91424 117.875C5.47024 96.639 14.0421 76.17 26.6846 58.6758C39.3365 41.1817 56.0871 26.6251 75.1305 16.5777C95.2312 5.9783 117.933 0.374563 140.785 0.374563H233.187Z" fill="#B387FF"/>
<path d="M290.833 467.686C270.967 467.686 259.232 445.428 270.46 429.044L304.58 379.256C309.184 372.538 316.806 368.521 324.952 368.521H383.234C411.57 368.521 431.605 340.802 422.715 313.906L402.674 253.306C400.254 245.989 401.391 237.961 405.748 231.603L441.126 179.98C452.675 163.128 478.532 166.789 484.946 186.184L516.893 282.781C524.061 304.467 525.867 327.78 522.105 350.185C518.549 371.421 509.977 391.89 497.335 409.385C484.683 426.879 467.932 441.435 448.889 451.483C428.788 462.082 406.086 467.686 383.234 467.686H290.833Z" fill="#FFD86F"/>
<path d="M599.355 50.2371C599.355 64.1108 593.731 76.6654 584.635 85.7586C575.549 94.8518 562.981 100.474 549.104 100.474H440.226C426.006 100.474 412.696 107.467 404.631 119.176L149.764 489.193C133.397 513.086 100.748 519.186 76.8475 502.814C62.0059 492.655 54.0329 476.227 54.0329 459.509C54.0329 449.293 57.0088 438.975 63.213 429.919L342.023 25.0624C352.776 9.37651 370.574 0 389.596 0H549.104C576.859 0 599.355 22.4898 599.355 50.2371Z" fill="#67E1F4"/>
</svg>
