<svg width="1122" height="256" viewBox="0 0 1122 256" fill="none" xmlns="http://www.w3.org/2000/svg">
<g clip-path="url(#clip0_9121_159)">
<path d="M482.887 143.296H400.344V234.349H361.5V11.7407H498.667V47.6748H400.344V108.275H482.887V143.296Z" fill="#1C1C21"/>
<path d="M546.731 53.7653C533.985 53.7653 523.971 43.7159 523.971 31.2304C523.971 18.7448 533.985 9 546.731 9C558.869 9 568.884 18.7448 568.884 31.2304C568.884 43.7159 558.869 53.7653 546.731 53.7653ZM528.219 234.349V83.9134H565.242V234.349H528.219Z" fill="#1C1C21"/>
<path d="M697.567 83.3043V117.716H683.911C657.206 117.716 640.516 132.028 640.516 161.263V234.349H603.493V84.2179H638.392L640.516 106.144C646.889 91.222 661.152 81.1727 681.18 81.1727C686.339 81.1727 691.498 81.7817 697.567 83.3043Z" fill="#1C1C21"/>
<path d="M759.65 234.349H722.627V83.9134H756.615L759.65 101.576C767.237 89.0903 782.41 79.3455 803.956 79.3455C826.716 79.3455 842.496 90.6129 850.386 107.971C857.973 90.6129 875.574 79.3455 898.334 79.3455C934.75 79.3455 954.779 101.271 954.779 135.987V234.349H918.059V145.732C918.059 124.111 906.528 112.843 888.927 112.843C871.022 112.843 857.366 124.415 857.366 149.082V234.349H820.343V145.428C820.343 124.415 809.115 113.148 791.514 113.148C773.913 113.148 759.65 124.72 759.65 149.082V234.349Z" fill="#1C1C21"/>
<path d="M1035.73 238.308C1003.87 238.308 984.447 219.732 984.447 191.411C984.447 163.699 1004.48 146.341 1039.98 143.6L1084.89 140.251V136.901C1084.89 116.498 1072.76 108.275 1053.94 108.275C1032.09 108.275 1019.95 117.411 1019.95 133.247H988.392C988.392 100.662 1015.1 79.3455 1055.76 79.3455C1096.12 79.3455 1121.01 101.271 1121.01 142.991V234.349H1088.54L1085.81 212.119C1079.43 227.65 1059.1 238.308 1035.73 238.308ZM1047.87 210.292C1070.63 210.292 1085.2 196.588 1085.2 173.444V165.526L1053.94 167.963C1030.88 170.094 1022.08 177.707 1022.08 189.888C1022.08 203.592 1031.18 210.292 1047.87 210.292Z" fill="#1C1C21"/>
<path d="M116.593 0.187282C126.526 0.187282 132.394 11.3161 126.78 19.508L109.72 44.4021C107.418 47.7614 103.607 49.7696 99.5335 49.7696H70.3927C56.2249 49.7696 46.2072 63.6292 50.6522 77.0773L60.6727 107.377C61.8827 111.036 61.3141 115.05 59.1355 118.229L41.4467 144.04C35.6723 152.466 22.7439 150.636 19.5367 140.938L3.56329 92.6395C-0.0207808 81.7969 -0.923818 70.1404 0.95712 58.9376C2.73512 48.3195 7.02104 38.085 13.3423 29.3379C19.6682 20.5909 28.0436 13.3126 37.5652 8.28884C47.6156 2.98915 58.9667 0.187282 70.3927 0.187282H116.593Z" fill="#B387FF"/>
<path d="M145.416 233.843C135.483 233.843 129.616 222.714 135.23 214.522L152.29 189.628C154.592 186.269 158.403 184.261 162.476 184.261H191.617C205.785 184.261 215.802 170.401 211.357 156.953L201.337 126.653C200.127 122.994 200.696 118.981 202.874 115.802L220.563 89.9902C226.337 81.5642 239.266 83.3945 242.473 93.092L258.446 141.391C262.03 152.233 262.934 163.89 261.053 175.093C259.275 185.711 254.989 195.945 248.667 204.692C242.341 213.439 233.966 220.718 224.444 225.741C214.394 231.041 203.043 233.843 191.617 233.843H145.416Z" fill="#FFD86F"/>
<path d="M299.678 25.1186C299.678 32.0554 296.866 38.3327 292.318 42.8793C287.774 47.4259 281.491 50.2371 274.552 50.2371H220.113C213.003 50.2371 206.348 53.7337 202.316 59.5878L74.8821 244.597C66.6987 256.543 50.3738 259.593 38.4238 251.407C31.0029 246.327 27.0165 238.113 27.0165 229.755C27.0165 224.647 28.5044 219.487 31.6065 214.959L171.011 12.5312C176.388 4.68825 185.287 0 194.798 0H274.552C288.43 0 299.678 11.2449 299.678 25.1186Z" fill="#67E1F4"/>
</g>
<defs>
<clipPath id="clip0_9121_159">
<rect width="1121.5" height="256" fill="white"/>
</clipPath>
</defs>
</svg>
